PathFileType	4	(X/Y/Z)	pose_F01_0-76.trc
DataRate	CameraRate	NumFrames	NumMarkers	Units	OrigDataRate	OrigDataStartFrame	OrigNumFrames
30	30	10	21	m	30	54	76
Frame#	Time	CHip			RHip			RKnee			RAnkle			RBigToe			RSmallToe			RHeel			LHip			LKnee			LAnkle			LBigToe			LSmallToe			LHeel			Neck			Nose			RShoulder			RElbow			RWrist			LShoulder			LElbow			LWrist			
		X1	Y1	Z1	X2	Y2	Z2	X3	Y3	Z3	X4	Y4	Z4	X5	Y5	Z5	X6	Y6	Z6	X7	Y7	Z7	X8	Y8	Z8	X9	Y9	Z9	X10	Y10	Z10	X11	Y11	Z11	X12	Y12	Z12	X13	Y13	Z13	X14	Y14	Z14	X15	Y15	Z15	X16	Y16	Z16	X17	Y17	Z17	X18	Y18	Z18	X19	Y19	Z19	X20	Y20	Z20	X21	Y21	Z21	
54	1.8	-0.18678593315269815	1.8338087433400991	-0.5165212046482149	-0.20223276067668491	1.8303301868737407	-0.4679967784473613	-0.2090064182660159	1.7208003395291327	-0.4878656146018087	-0.1740763825245004	1.6146015180786764	-0.5282399710639066	-0.194154794857106	1.58038182174228	-0.5474771785289501				-0.16249066567408332	1.604455395814315	-0.5269703433666084	-0.16749622416877555	1.8368130779883745	-0.5556617174214644	-0.16053006204178752	1.7248381250775642	-0.5979208729825813	-0.15186161937339349	1.6157662738055492	-0.5743631466062331	-0.15833020500639236	1.588409097181239	-0.6293327449193471	-0.14749947337427596	1.5955190326092141	-0.6413298134928836	-0.17672038138268317	1.5880603006858662	-0.5615069214677566	-1.6772642069322514	1.8884279734754734	1.075569466257649	-0.17741438097768097	2.017062025991657	-0.659061739589723	-1.751999978417271	1.887496560112705	1.1917300284304795	-0.22385649099519644	1.9088571958824714	-0.42306198920451255	-0.2065321500716114	1.881372713404382	-0.5213467400551643	-1.5878083041605096	1.8903122133901231	0.945247543735456	-0.15898667223511193	1.9151021563317985	-0.5813835265424029	-0.1542480882311612	1.9217008233066588	-0.6674664958589211
55	1.8333333333333333	-0.17939844306155123	1.8316340468047743	-0.5376276172528393	-0.1985131968357041	1.8285638504565296	-0.48112432869999716	-0.20688095243286436	1.710877528209457	-0.4892215297093104	-0.1740763825245004	1.6146015180786764	-0.5282399710639066	-0.194154794857106	1.58038182174228	-0.5474771785289501				-0.16249066567408332	1.604455395814315	-0.5269703433666084	-0.16465978143509136	1.8358279594709244	-0.5845928463693416	-0.16250242376089424	1.7252784099018557	-0.621523901015668	-0.13907391919239984	1.614888876329131	-0.5873532142473638	-0.14824071556455876	1.5873319227092655	-0.6345389685882076	-0.13483326782605934	1.5957600423204281	-0.6497179943605432	-0.1427406537015967	1.6079735149302379	-0.5778713554610581	-1.64682030521641	1.886721891120026	1.0286289150384091	-0.1781591297579866	2.0205982909418823	-0.6629700114389068	-1.7490452250224404	1.8875003248803368	1.1881690689525828	-0.21491689151941873	1.903837815869386	-0.4365713387290934	-0.20982996898425585	1.8818832344913892	-0.5435942915568772	-1.555887075707123	1.8868066062737523	0.8966707942084035	-0.14722657438619835	1.9147262093861375	-0.6195997959852718	-0.143950894878457	1.923607440208965	-0.682633912331263
56	1.8666666666666667	-0.17445996388239	1.836894996328345	-0.5520049949147201	-0.19078762145801514	1.8342363108323378	-0.5031530964539389	-0.19749114318907585	1.7226842914081086	-0.5052832823538007	-0.1740763825245004	1.6146015180786764	-0.5282399710639066	-0.194154794857106	1.58038182174228	-0.5474771785289501				-0.16249066567408332	1.604455395814315	-0.5269703433666084	-0.15533520698370348	1.8386232863483953	-0.6031074686871636	-0.16157634589470854	1.728079044006669	-0.6312851025752608	-0.14363397617800483	1.6147185704132412	-0.6122107779773126	-0.15134163653562593	1.5889568238282583	-0.6523158636804487	-0.1391386822418189	1.600679654305219	-0.6700962277587809	-0.14178239504968418	1.6056988949817532	-0.5912607693598495	-1.6214521013555199	1.8871068908194597	0.9880846266406047	-0.1786898684438585	2.0252284251516484	-0.6755654890141766	-1.7367534819553692	1.8877521964155572	1.1679650677525324	-0.2112230160338017	1.905588639291562	-0.458903145215198	-0.20694390606406599	1.8933368211017427	-0.5728731171687836	-1.4942102540949962	1.8842372575282473	0.8036608637666285	-0.13169566654119563	1.9116456009443072	-0.6447155814448322	-0.13674549531130564	1.9240027312399364	-0.6983994560600133
57	1.9	-0.16782045079859226	1.8369175125550337	-0.5768734293806194	-0.18554887671478235	1.8322769448741871	-0.5222505810705174	-0.19268348583130857	1.7154611599502634	-0.5097204115318682	-0.1740763825245004	1.6146015180786764	-0.5282399710639066	-0.194154794857106	1.58038182174228	-0.5474771785289501				-0.16249066567408332	1.604455395814315	-0.5269703433666084	-0.15131884484685454	1.8383990478028125	-0.6288781073468848	-0.1531295943098081	1.7242224102114188	-0.6315328840069424	-0.14824011145190802	1.612340002625088	-0.6286763858042966	-0.15526539498708247	1.5858607247929135	-0.6695319429816778	-0.143081847249061	1.5928762810564578	-0.6912750287901485	-0.1470140465466749	1.601257044724343	-0.6111679364478674	-1.617262134096723	1.8893841029985952	0.983558385813924	-0.17751825062299956	2.025512341377758	-0.6813367690358411	-1.7319896697285515	1.8879891107948112	1.162505619026711	-0.2070197424364698	1.9022702711495378	-0.47164242127234624	-0.2030577675202222	1.9015816158460308	-0.5789155178566308	-1.4702032507336098	1.8901684688841287	0.7673725464558524	-0.11915596242293827	1.9176382713938749	-0.6711578555785297	-0.13335769713922505	1.9262204721139058	-0.7179079203380561
58	1.9333333333333333	-0.1654193948668852	1.837037075090995	-0.5878758836721234	-0.18033433151463163	1.8323518338195326	-0.5324352926232743	-0.1921832747728124	1.7197043020785423	-0.5325389670015768	-0.1740763825245004	1.6146015180786764	-0.5282399710639066	-0.194154794857106	1.58038182174228	-0.5474771785289501				-0.16249066567408332	1.604455395814315	-0.5269703433666084	-0.148651511724136	1.8383482526711803	-0.6400339819575777	-0.1487270613931517	1.724532314265675	-0.6361997308268639	-0.1447427008246761	1.6124646839315342	-0.6283851728315302	-0.15529024029437757	1.5858112497152554	-0.6694844728655018	-0.14236661255182292	1.593802891569032	-0.6878542475169871	-0.1452897444597652	1.6009701733262203	-0.6134176982476047	-1.5618212294159628	1.8880151142716068	0.8972607055011389	-0.1773954638441509	2.0263052697761843	-0.6814566825629063	-1.727883261071465	1.8880844351824673	1.1577615308971831	-0.20091615237109342	1.9018443413431052	-0.4782403495589738	-0.2039290135642418	1.9052107804484006	-0.5824839740185929	-1.386295287657108	1.8859673938914399	0.639534006506225	-0.11256498299321659	1.915357822745109	-0.6899565964287078	-0.13254402417334932	1.927453982825513	-0.7270403935579173
59	1.9666666666666666	-0.16486571004351022	1.8391057054447502	-0.5971475416349539	-0.17983830688611252	1.837300660909522	-0.5418771693528026	-0.18291138901909793	1.7211087428987502	-0.5474276177588984	-0.1740763825245004	1.6146015180786764	-0.5282399710639066	-0.194154794857106	1.58038182174228	-0.5474771785289501				-0.16249066567408332	1.604455395814315	-0.5269703433666084	-0.1475757623089183	1.8411493197160278	-0.6578936855982139	-0.14720800739563672	1.7258316424765567	-0.6506355994517925	-0.1463671990151549	1.6149693874584663	-0.6353477037842529	-0.1554513561774152	1.5864110457169167	-0.6694398913958742	-0.14247850116958286	1.594205030515365	-0.6878699226324813	-0.14334283653601076	1.6044082762085918	-0.616136207207315	-1.5246014142440683	1.8887709555961516	0.8384668255367125	-0.17607031114237187	2.0268490221801296	-0.6865407153067372	-1.722122668423314	1.8861470674312077	1.1507548363566042	-0.19713797642932968	1.906827450913098	-0.48380137523813255	-0.20027684449387415	1.9109583867085416	-0.59105078256491	-1.3629274879813036	1.892661579760213	0.6040919527458334	-0.1108729103570254	1.923009342496331	-0.7175645023282943	-0.13950104362880902	1.9282269943909216	-0.7432995681809669
60	2.0	-0.1645186051323786	1.8392665872507745	-0.6060297782217703	-0.1789345996814079	1.8363967913081618	-0.5472681862384853	-0.18279492809193582	1.7230515216363955	-0.5563648181373682	-0.1740763825245004	1.6146015180786764	-0.5282399710639066	-0.194154794857106	1.58038182174228	-0.5474771785289501				-0.16249066567408332	1.604455395814315	-0.5269703433666084	-0.1470347922883485	1.8413248013569032	-0.6666231796028375	-0.14778225339417803	1.7276857482344774	-0.6543336962942219	-0.14669448695639092	1.6176706512676062	-0.6396954641242768	-0.15707646357667804	1.5890106728788598	-0.668246719947323	-0.14443879586005748	1.5956700867704476	-0.6861362726904915	-0.14361566052711752	1.6087167569983138	-0.6163879297777247	-1.515853624914926	1.8894587597143657	0.8286170746906981	-0.1773405622837231	2.0268428955732976	-0.6814406931359515	-1.721355840376795	1.8885878100007787	1.1506401568976248	-0.19584722954400707	1.9045704683703277	-0.48861577462223077	-0.19963159404151387	1.9167911811090899	-0.5889777904059614	-1.3114327833995958	1.8931928793211474	0.5263270225689914	-0.11305200951621393	1.922892282650274	-0.7385306016252633	-0.1381434017879826	1.9276100874075666	-0.7489403255402868
61	2.033333333333333	-0.16227298226032974	1.8390341628815778	-0.6170582138168935	-0.17956393832408743	1.8366724813334634	-0.5594728319677166	-0.18168880533856924	1.7214974058290524	-0.5531011666837019	-0.1779138670190799	1.6115662804125133	-0.5408225554218885	-0.19725640579331022	1.5782019365359454	-0.5476879393341421				-0.17031857775403478	1.6075671257105169	-0.549227140110093	-0.14519313619434143	1.8410753834977078	-0.6692285802510678	-0.1459489060950814	1.7268988254811701	-0.6562771195775973	-0.14099436709964247	1.6179988645966616	-0.6498354405268046	-0.1614448768637523	1.5910321928534374	-0.6641488481325668	-0.14905500179953815	1.5957373787268496	-0.6813944046610177	-0.13234138272069715	1.6099669194540551	-0.6370680283135388	-1.515801175751564	1.8915447951423074	0.8287166177676085	-0.17730836403716363	2.0285782454807957	-0.681662463009666	-1.7185110221276967	1.8886866180270385	1.1475564271167658	-0.19322585905156178	1.907830462664627	-0.4886515693068079	-0.19228668496472068	1.9157445491051084	-0.5921259768676038	-1.2861117407914893	1.894401958864722	0.4879583467619176	-0.11256620069159443	1.9176595167678006	-0.7469355832220279	-1.1704137693285244	1.839183555879749	0.3173155811801945
62	2.066666666666667	-0.15987728697525475	1.8408501863992102	-0.6195477600246797	-0.17634638844199954	1.8383073033436554	-0.5587118025546851	-0.17946069575110102	1.7209137413020832	-0.5553701940891186	-0.1779884424160359	1.6122310028060087	-0.5408941200781866	-0.19731973805231068	1.5811517866885576	-0.5482972731491258				-0.17028003204374628	1.6071893526528305	-0.5495133922317744	-0.14282565612811376	1.8425045163365241	-0.6717422012656045	-0.14541284672651905	1.7293304421109945	-0.6572917896205595	-0.1321625774153551	1.618759755096461	-0.6592836385758117	-0.15357684513292935	1.591723044841204	-0.6722132794102562	-0.14198878595035386	1.5977321863277063	-0.6886849297953119	-0.1258169229999723	1.6115613390487697	-0.6440377871488256	-1.5116326746184825	1.8918155175925353	0.8242004127362806	-0.17490573396421166	2.0278031728338153	-0.6724427739552562	-1.7163968748306024	1.8888966348920782	1.1451693256756794	-0.18873409853324716	1.9089956623295679	-0.493149284124156	-0.18811158095398886	1.920820443465788	-0.5975699454989993	-0.1305834945548511	1.9864850834221086	-0.7307541986678086	-0.1094322708032077	1.9212330806201423	-0.7463580066872236	-0.1432686826349275	1.9275641435101034	-0.735521980111584
63	2.1	-0.1558204081041452	1.839979016586444	-0.6240671295679486	-0.17026620865867614	1.8371402115722228	-0.5654487687278289	-0.17416872090628327	1.7224582044469043	-0.5570830706874041	-0.1776517241620569	1.613030260256001	-0.5414289430864266	-0.19581484515228442	1.5803116505055266	-0.5407438523841978				-0.1703112259086124	1.6100494876988272	-0.549685882923799	-0.14153359866845636	1.8413431896107957	-0.6770429532179288	-0.14492956459721634	1.729903829701791	-0.6661380031957961	-0.12947234495520857	1.6215694374918717	-0.6661517444811406	-0.1484479431262399	1.5946873656751201	-0.6690983801611907	-0.1375495742248013	1.600731562340328	-0.6888026508769992	-0.12289531677414205	1.613351429306462	-0.6639319243797589	-1.503630468433761	1.8922265346908205	0.8158492210659422	-0.17538237079501523	2.024547132745127	-0.6637471955650636	-1.7126421897457726	1.8890326079846762	1.141289543614388	-0.18319962665741238	1.90849310209046	-0.5002579233206366	-0.1812108911896144	1.921868914709161	-0.5925679719605073	-0.12739628421799518	1.9875143589644417	-0.7301552146059559	-0.10498404502277711	1.9206888037487986	-0.7511960298301379	-0.1495123314152293	1.9244522857329023	-0.7251663669354363
